<svg xmlns="http://www.w3.org/2000/svg" viewBox="0 0 240 200" fill="none">
  <defs>
    <linearGradient id="bg-roster" x1="0" y1="0" x2="1" y2="1">
      <stop offset="0%" stop-color="#FFF0E8"/>
      <stop offset="100%" stop-color="#FFE3D6"/>
    </linearGradient>
  </defs>
  <rect x="18" y="26" width="204" height="148" rx="22" fill="url(#bg-roster)"/>
  <!-- Camera body -->
  <rect x="66" y="66" width="108" height="78" rx="12" fill="#231C2B"/>
  <rect x="66" y="66" width="108" height="22" rx="12" fill="#4A3557"/>
  <!-- Top bump -->
  <rect x="102" y="52" width="36" height="18" rx="4" fill="#231C2B"/>
  <!-- Lens outer -->
  <circle cx="120" cy="110" r="26" fill="#1F1A24"/>
  <circle cx="120" cy="110" r="22" fill="#3A2F43" stroke="#F26B4A" stroke-width="2"/>
  <circle cx="120" cy="110" r="14" fill="#231C2B"/>
  <circle cx="114" cy="104" r="4" fill="#FFD27A" opacity="0.9"/>
  <!-- Flash -->
  <rect x="150" y="74" width="16" height="8" rx="2" fill="#FFE3D6"/>
  <!-- Shutter -->
  <rect x="78" y="74" width="18" height="6" rx="2" fill="#F26B4A"/>
  <!-- Plus badge -->
  <circle cx="178" cy="64" r="16" fill="#F26B4A"/>
  <path d="M178 56v16M170 64h16" stroke="#FFF" stroke-width="2.5" stroke-linecap="round"/>
  <!-- Sparkles -->
  <path d="M50 50 l3 -6 l3 6 l6 3 l-6 3 l-3 6 l-3 -6 l-6 -3 z" fill="#FFD27A"/>
  <path d="M196 150 l2 -4 l2 4 l4 2 l-4 2 l-2 4 l-2 -4 l-4 -2 z" fill="#8AAE9B"/>
</svg>
