<svg xmlns="http://www.w3.org/2000/svg" viewBox="0 0 240 200" fill="none">
  <defs>
    <linearGradient id="bg-album" x1="0" y1="0" x2="1" y2="1">
      <stop offset="0%" stop-color="#EBF2EC"/>
      <stop offset="100%" stop-color="#D6E4DB"/>
    </linearGradient>
  </defs>
  <rect x="18" y="26" width="204" height="148" rx="22" fill="url(#bg-album)"/>
  <!-- Polaroid 3 (back) -->
  <g transform="rotate(-10 86 110)">
    <rect x="54" y="62" width="78" height="96" rx="4" fill="#FFFFFF" stroke="#EDE6DB"/>
    <rect x="60" y="68" width="66" height="66" fill="#8AAE9B"/>
    <circle cx="93" cy="96" r="14" fill="#D6E4DB"/>
  </g>
  <!-- Polaroid 2 (middle) -->
  <g transform="rotate(4 120 108)">
    <rect x="82" y="58" width="80" height="100" rx="4" fill="#FFFFFF" stroke="#EDE6DB"/>
    <rect x="88" y="64" width="68" height="68" fill="#FFD27A"/>
    <path d="M92 116 l14 -14 l10 10 l18 -22 l20 20 v18 h-62 z" fill="#F26B4A"/>
    <circle cx="140" cy="80" r="6" fill="#FFF"/>
  </g>
  <!-- Polaroid 1 (front) -->
  <g transform="rotate(-3 156 120)">
    <rect x="118" y="70" width="82" height="102" rx="4" fill="#FFFFFF" stroke="#EDE6DB"/>
    <rect x="124" y="76" width="70" height="70" fill="#F26B4A"/>
    <circle cx="159" cy="104" r="22" fill="#FFE3D6"/>
    <circle cx="159" cy="102" r="8" fill="#FFD27A"/>
  </g>
  <!-- Sparkle -->
  <path d="M42 154 l3 -6 l3 6 l6 3 l-6 3 l-3 6 l-3 -6 l-6 -3 z" fill="#FFD27A"/>
</svg>
